<?xml version="1.0" encoding="UTF-8"?>
<svg width="243px" height="94px" viewBox="0 0 243 94" version="1.1" xmlns="http://www.w3.org/2000/svg" xmlns:xlink="http://www.w3.org/1999/xlink">
    <!-- Generator: Sketch 58 (84663) - https://sketch.com -->
    <title>Group 4</title>
    <desc>Created with Sketch.</desc>
    <g id="Welcome" stroke="none" stroke-width="1" fill="none" fill-rule="evenodd">
        <g id="Desktop" transform="translate(-67.000000, -59.000000)" fill-rule="nonzero">
            <g id="Group-4" transform="translate(67.000000, 59.000000)">
                <g id="Group-3" fill="#4FA444">
                    <g id="Group-2" transform="translate(0.000000, 25.787611)">
                        <polygon id="E" points="25.7111525 24.1271433 8.80518922 24.1271433 8.80518922 35.5327019 28.6462156 35.5327019 28.6462156 42.5807522 0 42.5807522 0 0 28.5875143 0 28.5875143 7.10654038 8.80518922 7.10654038 8.80518922 17.2545631 25.7111525 17.2545631"></polygon>
                        <polygon id="I" points="90.621703 42.5807522 81.8165138 42.5807522 81.8165138 0 90.621703 0"></polygon>
                    </g>
                    <g id="Group" transform="translate(37.568807, 0.000000)">
                        <polygon id="K" points="13.7426175 25.5016593 9.16391915 30.414823 9.16391915 42.5807522 0.358729931 42.5807522 0.358729931 0 9.16391915 0 9.16391915 19.3017146 13.0382024 14.0083656 23.9272864 0 34.7576692 0 19.5833931 18.9215293 35.1979286 42.5807522 24.7197534 42.5807522"></polygon>
                        <polygon id="K" points="13.3838876 76.9209071 8.80518922 81.8340708 8.80518922 94 0 94 0 51.4192478 8.80518922 51.4192478 8.80518922 70.7209624 12.6794725 65.4276134 23.5685565 51.4192478 34.3989392 51.4192478 19.2246631 70.3407771 34.8391987 94 24.3610235 94"></polygon>
                    </g>
                </g>
                <path d="M116,61 L116,34.8181818 L123.551255,34.8181818 C125.765312,34.8181818 127.750512,35.3066884 129.506914,36.2837163 C131.263316,37.2607441 132.633166,38.6603305 133.616504,40.4825175 C134.599842,42.3047044 135.091503,44.3786098 135.091503,46.7042957 L135.091503,49.1138861 C135.091503,51.4515601 134.602934,53.5254655 133.62578,55.3356643 C132.648627,57.1458632 131.272593,58.5424526 129.497637,59.5254745 C127.722681,60.5084964 125.684914,61 123.384274,61 L116,61 Z M118.490196,36.4545455 L118.490196,59.3636364 L123.457883,59.3636364 C126.217723,59.3636364 128.431562,58.429768 130.099465,56.5620034 C131.767368,54.6942387 132.601307,52.1682014 132.601307,48.9838157 L132.601307,46.6322811 C132.601307,43.5581242 131.779367,41.096386 130.135463,39.2469928 C128.491558,37.3975996 126.325716,36.4667931 123.637872,36.4545455 L118.490196,36.4545455 Z M142.562092,61 L140.071895,61 L140.071895,34.8181818 L142.562092,34.8181818 L142.562092,61 Z M169.124183,57.5167112 C168.344375,58.6116365 167.122896,59.465906 165.459711,60.0795455 C163.796526,60.6931849 161.93537,61 159.876189,61 C157.792638,61 155.940621,60.5066894 154.320082,59.5200535 C152.699542,58.5334175 151.444557,57.1377096 150.555088,55.3328877 C149.665619,53.5280658 149.214799,51.4585678 149.202614,49.1243316 L149.202614,45.8034759 C149.202614,42.1577358 150.134715,39.2790881 151.998945,37.1674465 C153.863174,35.0558049 156.367053,34 159.510655,34 C162.252169,34 164.457532,34.68883 166.126809,36.0665107 C167.796087,37.4441914 168.789109,39.3422339 169.105906,41.7606952 L166.857876,41.7606952 C166.528894,39.8355519 165.733867,38.3766761 164.472771,37.3840241 C163.211674,36.391372 161.563745,35.8950535 159.528932,35.8950535 C157.043293,35.8950535 155.075524,36.767371 153.625568,38.5120321 C152.175612,40.2566932 151.450645,42.7172301 151.450645,45.8937166 L151.450645,48.9979947 C151.450645,50.9953308 151.794852,52.7610217 152.483276,54.2951203 C153.171701,55.8292189 154.158631,57.0173755 155.444097,57.8596257 C156.729562,58.7018759 158.206911,59.1229947 159.876189,59.1229947 C161.813525,59.1229947 163.476686,58.8221955 164.865719,58.2205882 C165.767373,57.8235274 166.437511,57.3602968 166.876153,56.8308824 L166.876153,50.0447861 L159.729975,50.0447861 L159.729975,48.1677807 L169.124183,48.1677807 L169.124183,57.5167112 Z M177.424837,61 L174.934641,61 L174.934641,34.8181818 L177.424837,34.8181818 L177.424837,61 Z M202.326797,36.7062937 L193.081203,36.7062937 L193.081203,61 L190.802229,61 L190.802229,36.7062937 L181.575163,36.7062937 L181.575163,34.8181818 L202.326797,34.8181818 L202.326797,36.7062937 Z M218.778979,53.6633367 L206.62625,53.6633367 L203.868445,61 L201.496732,61 L211.62707,34.8181818 L213.778158,34.8181818 L223.908497,61 L221.55517,61 L218.778979,53.6633367 Z M207.30719,51.1818182 L218.098039,51.1818182 L212.702614,37.2727273 L207.30719,51.1818182 Z M229.548609,59.1298701 L243,59.1298701 L243,61 L227.228758,61 L227.228758,34.8181818 L229.548609,34.8181818 L229.548609,59.1298701 Z" id="DIGITAL" fill="#3C3C3C"></path>
            </g>
        </g>
    </g>
</svg>