<?xml version="1.0" encoding="UTF-8"?>
<svg width="91px" height="94px" viewBox="0 0 91 94" version="1.1" xmlns="http://www.w3.org/2000/svg" xmlns:xlink="http://www.w3.org/1999/xlink">
    <!-- Generator: Sketch 58 (84663) - https://sketch.com -->
    <title>Group 3</title>
    <desc>Created with Sketch.</desc>
    <g id="Welcome" stroke="none" stroke-width="1" fill="none" fill-rule="evenodd">
        <g id="Desktop" transform="translate(-67.000000, -59.000000)" fill="#4FA444" fill-rule="nonzero">
            <g id="Group-3" transform="translate(67.000000, 59.000000)">
                <g id="Group-2" transform="translate(0.000000, 25.787611)">
                    <polygon id="E" points="25.7111525 24.1271433 8.80518922 24.1271433 8.80518922 35.5327019 28.6462156 35.5327019 28.6462156 42.5807522 0 42.5807522 0 0 28.5875143 0 28.5875143 7.10654038 8.80518922 7.10654038 8.80518922 17.2545631 25.7111525 17.2545631"></polygon>
                    <polygon id="I" points="90.621703 42.5807522 81.8165138 42.5807522 81.8165138 0 90.621703 0"></polygon>
                </g>
                <g id="Group" transform="translate(37.568807, 0.000000)">
                    <polygon id="K" points="13.7426175 25.5016593 9.16391915 30.414823 9.16391915 42.5807522 0.358729931 42.5807522 0.358729931 0 9.16391915 0 9.16391915 19.3017146 13.0382024 14.0083656 23.9272864 0 34.7576692 0 19.5833931 18.9215293 35.1979286 42.5807522 24.7197534 42.5807522"></polygon>
                    <polygon id="K" points="13.3838876 76.9209071 8.80518922 81.8340708 8.80518922 94 0 94 0 51.4192478 8.80518922 51.4192478 8.80518922 70.7209624 12.6794725 65.4276134 23.5685565 51.4192478 34.3989392 51.4192478 19.2246631 70.3407771 34.8391987 94 24.3610235 94"></polygon>
                </g>
            </g>
        </g>
    </g>
</svg>